<svg viewBox="0 0 432 192" xmlns="http://www.w3.org/2000/svg" fill-rule="evenodd" clip-rule="evenodd" stroke-linecap="square" stroke-miterlimit="1.5"><path fill="none" d="M0 0h432v192H0z"/><path d="M141.669 78.2l-5.5.3v-19l.4-5.9c.1-1.3-.4-2.2-1.4-2.7-3.5-1.5-11-3-15.7-3.2-1 0-1.3.3-1.5.7l-1.2 3.6c3.4 1.3 6.5 3.5 7.9 5.7v30.9c0 4 .5 13.6 1.2 16.8h6.7c2.1-4.6 3.6-14 3.6-19.7v-.1l15.7-.4c1 0 2.3-.3 2.9-1 .8-.8 1.4-3 1.2-5.3-.1-1.1-.9-2-2.1-2.2-1.8-.4-6.1-.6-9-.5l-3.2 2zm-16.9 31.6c-5.7.4-19.2.6-24.9.7-4.1-.6-11.3-1.2-15.2-1.2-.8 0-1.1.3-1.2.6l-.8 3.1c2.1.9 4.4 2.4 5.6 3.7l1.7 21.6c.2 2.2.8 4.7 1.6 6.4h6.4c1-1 1.6-2 2-3.3l34.5-.4c.9-.8 1.8-2.9 1.8-5.2 0-.7-.4-1.2-1-1.6l-2-1c1.2-5.1 2.1-11 2.5-16.2l1.4-4.5c.3-.7.2-1.2-.2-1.5-1.2-.8-4.2-2.3-5.8-2.9-.6-.2-1.4-.2-2.1 0l-4.3 1.7zm-24.6 8.1c7.2-.2 16.4-.5 23.9-.5l-.3 15.6-2.1.6c-5.3.3-14.8.4-21.2.4l-.3-16.1zm11.3-16.1c.9.8 2 1.6 2.8 1.9 1.8.4 4.3-.7 5-2.5.3-.8.2-1.9-.6-3.4-1-1.9-3.2-5.2-4.9-7.4l-4.6-1-8.7-7.2c4.3-5 7.8-10.3 10.3-15.5l2.4-3.7c.3-.6.3-1.3-.3-1.6-1.3-.8-4.7-2.3-6.6-3-.6-.3-1.5-.3-2.2 0l-4.2 1.8c-4.4.2-19.9.4-23.6.4-2.8 0-6.7-.2-9.8-.7l-.8 1.4c-.2.4-.1.8.3 1.3 2.3 2.2 5.6 4.7 8.7 6.2 2.1-.8 5.8-1.5 7.8-1.6 2.1-.2 9.2-.3 14.2-.2-6.2 13-18.3 27.8-33.8 38.6-.4.5-.4.9 0 1.3l1.7 1.8c.4.2.9.1 1.6-.2 11.2-5.4 21.4-12.8 29.5-21.1l15.8 14.4zm94.6-4.6l-10.7-11.3c2.9-5.3 4.9-10.7 5.9-15.9.2-.7.3-1.7.3-2.7 0-.9-.7-1.8-1.7-2.3-2.8-1.6-10.3-3.7-14.6-4.2-.8-.1-1.2.1-1.5.5l-1.5 3c2.5 1.4 4.9 3.7 5.9 5.6-2.6 14.5-11.9 31.1-25.7 44.7-.5.6-.5 1-.2 1.3l2 1.7c.5.3.9.3 1.5-.1 10.7-7.1 19.4-15.9 25.7-25.1l17.2 19.8c.9.9 2 2 2.9 2.3 1.7.7 4.5-.2 5.4-2.1.4-.9.4-2.1-.3-4.1-.9-2.2-3.2-6.2-4.9-8.8l-5.7-2.3zm13-45.3c3.5 1.4 6.6 3.6 8.1 5.9v64.6c0 4.7.5 18.4 1.2 22.1h6.5c2.4-6.8 3.9-19.1 3.9-25.7V59.7l.4-6.1c0-1.3-.4-2.2-1.5-2.7-3.5-1.5-11.3-3-16-3.2-1 0-1.3.3-1.5.7l-1.1 3.5zm54.812-3.5c1.4 2.25 3 5.45 3.45 8.45 5.6 4.2 11.25-6.45-3.05-8.7l-.4.25zm-2.45 11.3c1.4 2.1 2.65 5.25 2.75 8.1 5.2 4.3 11.05-5.75-2.3-8.35l-.45.25zm12.6 3.1c-7.1 13.95-7.1 13.95-8.25 15.55-.65.95-.9.95-1.7.95h-2.25v.9c1.1.1 1.9.35 2.6.85 1.15.75 1.35 5.85.3 11.3.45 1.9 1.95 2.6 3.2 2.6 2.65 0 4.8-1.75 4.95-4.55.15-4.6-2.2-6.15-2.35-9.1-.05-1.2.25-2.95.55-4.35.45-2.05 2.45-9.8 3.65-13.95l-.7-.2zm11.05 27.4v-6.45h12.2v6.45h-12.2zm12.2-13.7v5.85h-12.2V76.5h12.2zm-.5-1.4h-11.4l-7.3-2.8v22.65h1c2.95 0 6-1.5 6-2.2V91.6h12.2v3.3h1.25c2.3 0 5.85-1.3 5.9-1.65V77.5c.9-.2 1.45-.6 1.75-1l-6.3-4.75-3.1 3.35zm-.45-14.65V52.7h1.7c-.05 2.55-.2 5.2-.7 7.75h-1zm-16.45 0V52.7h1.6c-.05 2.55-.15 5.15-.6 7.75h-1zm11.35-7.75v7.15c-1.4-1.5-3.05-3.15-3.05-3.15l-2.15 3.4c.65-2.4.9-4.9 1.05-7.4h4.15zm16.7 12.35h-.5c-.45 1-1 1.75-1.3 2-.2.2-.55.25-.75.25-.1 0-.15-.05-.1-.05h.05c-.25 0-.35-.15-.35-.6v-4.8h3.25c.7 0 1.2-.25 1.35-.8-1.65-1.75-4.55-4.4-4.55-4.4l-2.55 3.8h-.1c.8-2.5 1.1-5.1 1.3-7.75h3.75c.7 0 1.2-.25 1.35-.8-1.75-1.75-4.8-4.25-4.8-4.25l-2.65 3.65h-4.95l-5.15-2v1.3c-1.65-1.5-3.4-2.95-3.4-2.95l-2.65 3.65h-5.25l-5-1.95v11.1h-2.05l.4 1.4h7.3c-1.05 4.4-3.25 8.7-8.1 12.6l.6.7c6.6-3.3 10.05-7.35 11.9-11.85v4.35c-1 .25-1.85.45-2.45.55l3.5 5.55c.55-.2.95-.65 1.1-1.35 3.05-2.75 5.15-4.9 6.5-6.3l-.15-.55-3.6.9v-4.6h7.1c-1.1 4.05-3.4 8.05-8.15 11.65l.6.7c4.95-2.3 8.15-5.05 10.25-8.05v2c0 3.2.25 4.35 3.55 4.35h1.3c3.4 0 5-1.05 5-3.15 0-1-.25-1.7-1.4-2.3l-.2-2zm40.15-9.35h-8.85v-6c1.4-.25 1.7-.75 1.8-1.45l-9.45-.65v8.1h-19.85l.4 1.4h19.45v6.85h-6.75l-7.7-2.95v27.45h1.05c3.05 0 6.2-1.6 6.2-2.35V65.35h7.2v29h1.45c2.8 0 6.2-1.65 6.2-2.3v-26.7h7.15v14.8c0 .55-.2.85-.9.85-1.15 0-4.85-.2-4.85-.2v.6c2.25.4 3 1.25 3.65 2.25.65 1.05.85 2.65.95 4.95 7.5-.6 8.5-3.2 8.5-7.7V66.5c1.05-.2 1.65-.65 2-1.05l-6.7-5.05-3.15 3.55h-6.65V58.4c1.2-.15 1.5-.65 1.6-1.25l-.55-.05h17.45c.75 0 1.35-.25 1.5-.8-2.7-2.3-7.2-5.65-7.2-5.65l-3.95 5.05z" fill-rule="nonzero"/><path d="M255.08 48.3v96" fill="none" stroke="#000" stroke-width="2"/><path d="M410 170H22V22h388v148zM24 24v144h384V24H24z"/></svg>